<svg width="11" height="11" viewBox="0 0 11 11" fill="none" xmlns="http://www.w3.org/2000/svg">
<g clip-path="url(#clip0_706_524)">
<path d="M8.74753 4.91786C8.75794 3.6634 7.68957 2.51348 6.36614 2.35428C6.33754 2.35072 6.30905 2.34638 6.28068 2.34127C6.21416 2.32853 6.1467 2.32128 6.07898 2.31958C5.80744 2.31958 5.735 2.51044 5.71592 2.62365C5.69726 2.73426 5.71505 2.82752 5.7684 2.89996C5.85819 3.02185 6.01652 3.04354 6.14361 3.06089C6.18048 3.0661 6.21562 3.07087 6.24511 3.07738C7.43451 3.34328 7.83488 3.761 8.03051 4.94042C8.03528 4.96905 8.03745 5.00461 8.04005 5.04235C8.04873 5.18333 8.06608 5.47656 8.38143 5.47656C8.40746 5.47656 8.43608 5.47439 8.46558 5.47005C8.75881 5.42537 8.7497 5.1573 8.74536 5.02847C8.74406 4.99204 8.74276 4.95777 8.74623 4.93478C8.74692 4.92902 8.74721 4.92322 8.7471 4.91743L8.74753 4.91786Z" fill="#000593"/>
<path d="M6.00173 1.89397C6.0373 1.89658 6.07027 1.89918 6.09803 1.90308C8.05129 2.20368 8.94963 3.12892 9.19818 5.09736C9.20252 5.13076 9.20338 5.17154 9.20382 5.21448C9.20642 5.36847 9.21163 5.68859 9.55517 5.6951H9.56558C9.67359 5.6951 9.75904 5.66256 9.82064 5.59837C9.92735 5.48689 9.92041 5.32075 9.9139 5.18715C9.9126 5.15419 9.9113 5.12339 9.9113 5.09606C9.93645 3.08337 8.19357 1.25763 6.18261 1.18997C6.17394 1.18997 6.16613 1.18997 6.15832 1.19127C6.15041 1.19226 6.14244 1.1927 6.13446 1.19257C6.11408 1.19257 6.08979 1.19083 6.06333 1.1891C6.03209 1.18693 5.99609 1.18433 5.95922 1.18433C5.6391 1.18433 5.57837 1.41206 5.57056 1.54783C5.55278 1.86144 5.85598 1.88356 6.00173 1.89397ZM9.10405 7.64142C9.06214 7.60956 9.02064 7.57717 8.97956 7.54426C8.76614 7.37248 8.53928 7.21459 8.32023 7.06147L8.18359 6.96604C7.90251 6.76868 7.65005 6.67281 7.41148 6.67281C7.08962 6.67281 6.80941 6.85066 6.57778 7.20071C6.47541 7.356 6.35091 7.43148 6.19779 7.43148C6.09144 7.42776 5.98708 7.4016 5.89155 7.3547C4.98497 6.94349 4.33692 6.31279 3.96648 5.48038C3.78734 5.07784 3.84546 4.81498 4.16038 4.6007C4.33952 4.47924 4.67223 4.25325 4.64924 3.81991C4.62234 3.32845 3.53748 1.84886 3.08029 1.68099C2.88484 1.6097 2.6706 1.60908 2.47475 1.67926C1.94945 1.8558 1.57294 2.16638 1.38425 2.57629C1.20207 2.97276 1.21074 3.43819 1.40767 3.92228C1.97808 5.32206 2.77969 6.54268 3.79081 7.5499C4.78023 8.53586 5.99652 9.3431 7.40541 9.94994C7.5325 10.0046 7.66567 10.0345 7.76327 10.0562C7.79624 10.0636 7.82486 10.0701 7.84569 10.0757C7.85714 10.0788 7.86895 10.0804 7.88082 10.0805H7.8921C8.5549 10.0805 9.35087 9.47497 9.59508 8.78484C9.80936 8.18016 9.4181 7.8813 9.10405 7.64142ZM6.29496 3.49328C6.18174 3.49588 5.94534 3.50196 5.86249 3.74227C5.82345 3.85505 5.82822 3.95221 5.87637 4.03246C5.94664 4.14958 6.08154 4.18601 6.20387 4.20597C6.64848 4.2771 6.87708 4.52262 6.92262 4.97938C6.94388 5.19192 7.08746 5.34071 7.27094 5.34071C7.28486 5.34069 7.29877 5.33982 7.31258 5.3381C7.5338 5.31208 7.64095 5.14942 7.6314 4.85489C7.63487 4.54778 7.47438 4.19903 7.20067 3.92141C6.92653 3.64293 6.59599 3.48591 6.29496 3.49328Z" fill="#000593"/>
</g>
<defs>
<clipPath id="clip0_706_524">
<rect width="10.4105" height="10.4105" fill="white" transform="translate(0.380493 0.533936)"/>
</clipPath>
</defs>
</svg>
