<svg width="9" height="9" viewBox="0 0 9 9" fill="none" xmlns="http://www.w3.org/2000/svg">
<path fill-rule="evenodd" clip-rule="evenodd" d="M7.46567 1.78516C7.08141 1.40027 6.62425 1.0951 6.12068 0.887321C5.6171 0.679544 5.07712 0.573293 4.532 0.574721C2.2469 0.574721 0.385165 2.42631 0.385165 4.70108C0.383434 5.4254 0.574274 6.13728 0.938308 6.76443L0.350464 8.90308L2.54916 8.32826C3.15712 8.65795 3.83829 8.83098 4.53062 8.83158H4.53235C6.8178 8.83158 8.67745 6.98033 8.67884 4.70384C8.67884 3.60152 8.24785 2.56518 7.46567 1.78482V1.78516ZM4.532 8.13412H4.53062C3.91347 8.13412 3.30765 7.96912 2.77645 7.65637L2.65048 7.5821L1.34501 7.92236L1.69341 6.6563L1.61221 6.52676C1.26679 5.97997 1.08392 5.347 1.08475 4.70108C1.08475 2.81079 2.6314 1.27252 4.53339 1.27252C4.98604 1.2714 5.43443 1.35966 5.85258 1.53222C6.27073 1.70477 6.65034 1.95818 6.96944 2.27777C7.29011 2.59583 7.5443 2.97399 7.71733 3.3904C7.89036 3.80681 7.97879 4.25322 7.97752 4.70384C7.97752 6.59585 6.43087 8.13412 4.53166 8.13412H4.532ZM6.4215 5.56469C6.31844 5.51357 5.80867 5.26415 5.71394 5.2303C5.6192 5.19506 5.5498 5.17883 5.48074 5.28143C5.41134 5.38506 5.21354 5.61755 5.15281 5.68629C5.09313 5.75365 5.03205 5.76332 4.92899 5.71185C4.82488 5.66073 4.4914 5.55122 4.09546 5.19921C3.78765 4.92631 3.5791 4.58777 3.51941 4.48517C3.45834 4.38154 3.51247 4.32627 3.56418 4.27445C3.61137 4.22885 3.66828 4.15458 3.71999 4.09378C3.77135 4.03471 3.78939 3.99153 3.82409 3.92244C3.8581 3.8537 3.84075 3.7929 3.81472 3.74177C3.78904 3.69065 3.58187 3.1818 3.49512 2.97523C3.4108 2.77418 3.32543 2.8025 3.26193 2.7987C3.20224 2.79594 3.13318 2.79594 3.06413 2.79594C2.99472 2.79594 2.88229 2.8215 2.78721 2.92548C2.69247 3.02808 2.42527 3.27784 2.42527 3.78495C2.42527 4.29241 2.79658 4.78329 2.84863 4.85238C2.89999 4.91974 3.5791 5.96126 4.61841 6.40827C4.81099 6.49118 5.00792 6.56372 5.20834 6.62556C5.45645 6.70363 5.68271 6.69292 5.86177 6.66701C6.06096 6.63765 6.47425 6.4176 6.561 6.17613C6.64672 5.93605 6.64672 5.72947 6.62069 5.68629C6.59501 5.64311 6.52596 5.6172 6.4215 5.56469Z" fill="#000593"/>
</svg>
